<svg xmlns="http://www.w3.org/2000/svg" viewBox="0 0 81.54 81.16"><title>Fichier 1</title><g id="Calque_2" data-name="Calque 2"><g id="Calque_1-2" data-name="Calque 1"><g id="Symbols"><g id="Medium-M"><path d="M74.15,16.82l5.32-5.28c2.64-2.63,2.74-5.52.35-8l-1.91-1.9c-2.39-2.39-5.37-2.2-8,.39L64.63,7.29Zm-.88,56.64a3.89,3.89,0,0,0,5.47-5.52L14.44,3.63a3.93,3.93,0,0,0-5.52,0,4,4,0,0,0,0,5.52ZM55.16,35.71l14.31-14.3L60,12,45.69,26.24ZM14.34,76.53,41.1,49.77,31.62,40.3,4.87,67,.13,78.53a2,2,0,0,0,2.39,2.54Z"/></g></g></g></g></svg>