<svg xmlns="http://www.w3.org/2000/svg" viewBox="0 0 96.5 110.06"><title>Fichier 1</title><g id="Calque_2" data-name="Calque 2"><g id="Calque_1-2" data-name="Calque 1"><g id="Symbols"><g id="Medium-M"><path d="M75.7,68.85l8.74,8.69,2.29-49.9H92.1a4.33,4.33,0,1,0,0-8.65H70.42V12.35C70.42,4.83,65.25,0,57,0H39.51C31.16,0,26,4.83,26,12.35v5.37H24.62l10,9.92h43Zm14.16,33.79a3.86,3.86,0,0,0,5.46,0,3.91,3.91,0,0,0,0-5.52L6.65,8.45a3.85,3.85,0,0,0-5.51,0,3.85,3.85,0,0,0,0,5.47ZM35.17,19l0-6.2c0-2.68,2-4.59,4.88-4.59H56.36a4.59,4.59,0,0,1,4.93,4.59V19Zm-9.33,91.07H70.72c5.22,0,9-2.3,11-6.1l0-.74-7.37-7.37L74.28,97a4.45,4.45,0,0,1-4.64,4.3H26.82A4.78,4.78,0,0,1,22,96.44L19.4,40.87,10,31.45,13.1,98C13.44,105.57,18.23,110.06,25.84,110.06ZM51.53,44.63v-5a3.45,3.45,0,0,0-3.28-3.57,2.67,2.67,0,0,0-2.19,1.08v2ZM66.76,59.86l.59-20.16a3.3,3.3,0,0,0-3.18-3.62,3.51,3.51,0,0,0-3.27,3.57l-.39,14ZM33.85,93.31a3.34,3.34,0,0,0,3.22-3.61l-1-32.13L29.5,51l1.13,38.77C30.73,91.8,32,93.31,33.85,93.31Zm14.4,0a3.44,3.44,0,0,0,3.28-3.56V73L45,66.45v23.3A3.47,3.47,0,0,0,48.25,93.31Zm14.41,0a3,3,0,0,0,2.93-2.83l.1-3.37-6-6-.29,8.5A3.36,3.36,0,0,0,62.66,93.31Z"/></g></g></g></g></svg>