<svg xmlns="http://www.w3.org/2000/svg" viewBox="0 0 94.63 94.68"><title>Fichier 1</title><g id="Calque_2" data-name="Calque 2"><g id="Calque_1-2" data-name="Calque 1"><g id="Symbols"><g id="Ultralight-M"><path d="M47.31,94.68A47.34,47.34,0,1,0,0,47.31,47.46,47.46,0,0,0,47.31,94.68Zm0-31.55c-16.84,0-29.24,8.5-32.71,15a44.93,44.93,0,1,1,65.38,0C76.71,71.68,64.31,63.13,47.31,63.13Zm0-8.44c9.38,0,16.46-8,16.46-18.36,0-9.72-7.28-17.92-16.46-17.92s-16.5,8.2-16.45,17.92C30.86,46.68,38,54.69,47.31,54.69Z"/></g></g></g></g></svg>